<svg width="20" height="20" viewBox="0 0 20 20" fill="none" xmlns="http://www.w3.org/2000/svg">
<path d="M14.1135 0C19.573 0 20 0.427001 20 5.8865V14.113C20 19.5725 19.573 20 14.1135 20H13.069V12.719H15.636L16.0395 9.834H13.069C13.069 9.834 13.0645 8.145 13.069 7.7235C13.0775 6.899 13.766 6.482 14.3575 6.488C14.949 6.494 16.1745 6.49 16.1745 6.49V3.8315C16.1745 3.8315 15.113 3.694 14 3.6825C13.0645 3.673 12.0315 3.926 11.198 4.766C10.35 5.6205 10.2165 6.893 10.2 8.448C10.1955 8.898 10.2 9.834 10.2 9.834H7.688V12.719H10.2V20H5.887C0.427 20 0 19.5725 0 14.1135V5.8865C0 0.427001 0.427001 0 5.8865 0H14.1135Z" fill="#3A4750"/>
</svg>
