<?xml version="1.0" encoding="UTF-8"?><svg id="a" xmlns="http://www.w3.org/2000/svg" xmlns:xlink="http://www.w3.org/1999/xlink" viewBox="0 0 492.28 351"><defs><style>.g{stroke:url(#b);}.g,.h{fill:none;stroke-miterlimit:10;stroke-width:30px;}.i{fill:url(#c);}.j{fill:url(#f);}.k{fill:url(#d);}.h{stroke:url(#e);}</style><linearGradient id="b" x1="224.55" y1="192.61" x2="380.99" y2="192.61" gradientTransform="matrix(1, 0, 0, 1, 0, 0)" gradientUnits="userSpaceOnUse"><stop offset="0" stop-color="#fef200"/><stop offset="1" stop-color="#ffb22c"/></linearGradient><linearGradient id="c" x1="224.55" y1="192.61" x2="380.99" y2="192.61" gradientTransform="matrix(1, 0, 0, 1, 0, 0)" gradientUnits="userSpaceOnUse"><stop offset="0" stop-color="#ffb22c"/><stop offset="1" stop-color="#fef200"/></linearGradient><linearGradient id="d" x1="444.16" y1="24.06" x2="492.28" y2="24.06" gradientTransform="matrix(1, 0, 0, 1, 0, 0)" gradientUnits="userSpaceOnUse"><stop offset="0" stop-color="#ffd216"/><stop offset="1" stop-color="#fef200"/></linearGradient><linearGradient id="e" x1="142.83" y1="191.83" x2="461.16" y2="191.83" gradientTransform="matrix(1, 0, 0, 1, 0, 0)" gradientUnits="userSpaceOnUse"><stop offset="0" stop-color="#fef200"/><stop offset="1" stop-color="#ffb22c"/></linearGradient><linearGradient id="f" x1="142.83" y1="191.84" x2="461.16" y2="191.84" gradientTransform="matrix(1, 0, 0, 1, 0, 0)" gradientUnits="userSpaceOnUse"><stop offset="0" stop-color="#ffb22c"/><stop offset="1" stop-color="#fef200"/></linearGradient></defs><g><circle class="g" cx="302.77" cy="192.61" r="63.22"/><path class="i" d="M302.77,129.39c34.91,0,63.22,28.3,63.22,63.22s-28.3,63.22-63.22,63.22-63.22-28.3-63.22-63.22,28.3-63.22,63.22-63.22m0-15c-43.13,0-78.22,35.09-78.22,78.22s35.09,78.22,78.22,78.22,78.22-35.09,78.22-78.22-35.09-78.22-78.22-78.22h0Z"/></g><circle class="k" cx="468.22" cy="24.06" r="24.06"/><g><circle class="h" cx="302" cy="191.83" r="144.17"/><path class="j" d="M302,47.67c79.62,0,144.17,64.54,144.17,144.17s-64.54,144.17-144.17,144.17-144.17-64.54-144.17-144.17S222.38,47.67,302,47.67m0-15c-42.51,0-82.48,16.56-112.55,46.62-30.06,30.06-46.62,70.03-46.62,112.55s16.56,82.48,46.62,112.55c30.06,30.06,70.03,46.62,112.55,46.62s82.48-16.56,112.55-46.62,46.62-70.03,46.62-112.55-16.56-82.48-46.62-112.55-70.03-46.62-112.55-46.62h0Z"/></g></svg>