<svg width="20" height="20" viewBox="0 0 20 20" fill="none" xmlns="http://www.w3.org/2000/svg">
<path d="M16.25 0H3.75C1.67969 0 0 1.67969 0 3.75V16.25C0 18.3203 1.67969 20 3.75 20H16.25C18.3203 20 20 18.3203 20 16.25V3.75C20 1.67969 18.3203 0 16.25 0ZM6.1839 16.9772H3.07692L3.05889 7.67428H6.16587L6.1839 16.9772ZM4.55228 6.45733H4.53425C3.51863 6.45733 2.86358 5.75721 2.86358 4.88582C2.86358 3.99339 3.53966 3.31731 4.57332 3.31731C5.60697 3.31731 6.24099 3.99339 6.26202 4.88582C6.26202 5.75721 5.60397 6.45733 4.55228 6.45733ZM16.9561 16.9772H13.8221V11.9231C13.8221 10.7001 13.4976 9.86779 12.4038 9.86779C11.5685 9.86779 11.1178 10.4297 10.9014 10.9736C10.8203 11.1689 10.7993 11.4363 10.7993 11.7097V16.9772H7.65024L7.63221 7.67428H10.7812L10.7993 8.98738C11.2019 8.36539 11.872 7.48498 13.4766 7.48498C15.4657 7.48498 16.9531 8.78305 16.9531 11.5745V16.9772H16.9561Z" fill="#3A4750"/>
</svg>
