<svg width="20" height="20" viewBox="0 0 20 20" fill="none" xmlns="http://www.w3.org/2000/svg">
<path d="M3.33333 0C1.49238 0 0 1.49238 0 3.33333V16.6667C0 18.5076 1.49238 20 3.33333 20H16.6667C18.5076 20 20 18.5076 20 16.6667V3.33333C20 1.49238 18.5076 0 16.6667 0H3.33333ZM4.32664 4.28571H8.1064L10.7906 8.09989L14.0476 4.28571H15.2381L11.3281 8.86347L16.1496 15.7143H12.3707L9.25595 11.2891L5.47619 15.7143H4.28571L8.71838 10.5255L4.32664 4.28571ZM6.14955 5.2381L12.8674 14.7619H14.3266L7.60882 5.2381H6.14955Z" fill="#3A4750"/>
</svg>
