<svg width="19" height="18" viewBox="0 0 19 18" fill="none" xmlns="http://www.w3.org/2000/svg">
<path d="M8.78316 18C8.56011 18 8.37052 17.9213 8.21438 17.764C8.05825 17.6067 7.98018 17.4157 7.98018 17.191V10.618H1.55639C1.33334 10.618 1.14375 10.5393 0.987619 10.382C0.831485 10.2247 0.753418 10.0337 0.753418 9.80899V8.02247C0.753418 7.77528 0.831485 7.58427 0.987619 7.44944C1.14375 7.29214 1.33334 7.21348 1.55639 7.21348H7.98018V0.808989C7.98018 0.58427 8.05825 0.393259 8.21438 0.235956C8.37052 0.0786524 8.56011 0 8.78316 0H10.7237C10.969 0 11.1586 0.0786524 11.2925 0.235956C11.4486 0.393259 11.5267 0.58427 11.5267 0.808989V7.21348H17.9504C18.1735 7.21348 18.3631 7.29214 18.5192 7.44944C18.6754 7.58427 18.7534 7.77528 18.7534 8.02247V9.80899C18.7534 10.0337 18.6754 10.2247 18.5192 10.382C18.3631 10.5393 18.1735 10.618 17.9504 10.618H11.5267V17.191C11.5267 17.4157 11.4486 17.6067 11.2925 17.764C11.1586 17.9213 10.969 18 10.7237 18H8.78316Z" fill="#303841"/>
</svg>
